<?xml version="1.0" encoding="utf-8"?>
<!-- Svg Vector Icons : http://www.onlinewebfonts.com/icon -->
<!DOCTYPE svg PUBLIC "-//W3C//DTD SVG 1.1//EN" "http://www.w3.org/Graphics/SVG/1.1/DTD/svg11.dtd">
<svg version="1.1" xmlns="http://www.w3.org/2000/svg" xmlns:xlink="http://www.w3.org/1999/xlink" x="0px" y="0px" viewBox="0 0 1000 1000" enable-background="new 0 0 1000 1000" xml:space="preserve">
<metadata> Svg Vector Icons : http://www.onlinewebfonts.com/icon </metadata>
<g><path d="M500,990C229.8,990,10,770.2,10,500C10,229.8,229.8,10,500,10c270.2,0,490,219.8,490,490C990,770.2,770.3,990,500,990z M500,66.1c-239.3,0-434,194.7-434,434c0,239.3,194.7,434,434,434c239.3,0,434-194.7,434-434C934,260.7,739.3,66.1,500,66.1z"/><path d="M378.4,705.8c-9,0-17.7-4.3-23.1-12.2c-8.7-12.8-5.5-30.2,7.3-38.9l228.1-156L361.3,321.6c-12.2-9.5-14.5-27-5-39.3c9.4-12.2,27-14.5,39.3-5l290.3,224.1L394.2,700.9C389.4,704.2,383.9,705.8,378.4,705.8z"/></g>
</svg>